<?xml version="1.0" encoding="UTF-8" standalone="no"?>
<svg width="1000" height="600" viewBox="0 0 1000 600" xmlns="http://www.w3.org/2000/svg">
    <!-- Field background -->
    <rect width="1000" height="600" fill="#1a472a" />
    
    <!-- Field pattern - checkerboard -->
    <rect x="0" y="0" width="30" height="30" fill="#235c37" />
    <rect x="0" y="60" width="30" height="30" fill="#235c37" />
    <rect x="0" y="120" width="30" height="30" fill="#235c37" />
    <rect x="0" y="180" width="30" height="30" fill="#235c37" />
    <rect x="0" y="240" width="30" height="30" fill="#235c37" />
    <rect x="0" y="300" width="30" height="30" fill="#235c37" />
    <rect x="0" y="360" width="30" height="30" fill="#235c37" />
    <rect x="0" y="420" width="30" height="30" fill="#235c37" />
    <rect x="0" y="480" width="30" height="30" fill="#235c37" />
    <rect x="0" y="540" width="30" height="30" fill="#235c37" />
    <rect x="30" y="30" width="30" height="30" fill="#235c37" />
    <rect x="30" y="90" width="30" height="30" fill="#235c37" />
    <rect x="30" y="150" width="30" height="30" fill="#235c37" />
    <rect x="30" y="210" width="30" height="30" fill="#235c37" />
    <rect x="30" y="270" width="30" height="30" fill="#235c37" />
    <rect x="30" y="330" width="30" height="30" fill="#235c37" />
    <rect x="30" y="390" width="30" height="30" fill="#235c37" />
    <rect x="30" y="450" width="30" height="30" fill="#235c37" />
    <rect x="30" y="510" width="30" height="30" fill="#235c37" />
    <rect x="30" y="570" width="30" height="30" fill="#235c37" />
    <rect x="60" y="0" width="30" height="30" fill="#235c37" />
    <rect x="60" y="60" width="30" height="30" fill="#235c37" />
    <rect x="60" y="120" width="30" height="30" fill="#235c37" />
    <rect x="60" y="180" width="30" height="30" fill="#235c37" />
    <rect x="60" y="240" width="30" height="30" fill="#235c37" />
    <rect x="60" y="300" width="30" height="30" fill="#235c37" />
    <rect x="60" y="360" width="30" height="30" fill="#235c37" />
    <rect x="60" y="420" width="30" height="30" fill="#235c37" />
    <rect x="60" y="480" width="30" height="30" fill="#235c37" />
    <rect x="60" y="540" width="30" height="30" fill="#235c37" />
    <rect x="90" y="30" width="30" height="30" fill="#235c37" />
    <rect x="90" y="90" width="30" height="30" fill="#235c37" />
    <rect x="90" y="150" width="30" height="30" fill="#235c37" />
    <rect x="90" y="210" width="30" height="30" fill="#235c37" />
    <rect x="90" y="270" width="30" height="30" fill="#235c37" />
    <rect x="90" y="330" width="30" height="30" fill="#235c37" />
    <rect x="90" y="390" width="30" height="30" fill="#235c37" />
    <rect x="90" y="450" width="30" height="30" fill="#235c37" />
    <rect x="90" y="510" width="30" height="30" fill="#235c37" />
    <rect x="90" y="570" width="30" height="30" fill="#235c37" />
    <rect x="120" y="0" width="30" height="30" fill="#235c37" />
    <rect x="120" y="60" width="30" height="30" fill="#235c37" />
    <rect x="120" y="120" width="30" height="30" fill="#235c37" />
    <rect x="120" y="180" width="30" height="30" fill="#235c37" />
    <rect x="120" y="240" width="30" height="30" fill="#235c37" />
    <rect x="120" y="300" width="30" height="30" fill="#235c37" />
    <rect x="120" y="360" width="30" height="30" fill="#235c37" />
    <rect x="120" y="420" width="30" height="30" fill="#235c37" />
    <rect x="120" y="480" width="30" height="30" fill="#235c37" />
    <rect x="120" y="540" width="30" height="30" fill="#235c37" />
    <rect x="150" y="30" width="30" height="30" fill="#235c37" />
    <rect x="150" y="90" width="30" height="30" fill="#235c37" />
    <rect x="150" y="150" width="30" height="30" fill="#235c37" />
    <rect x="150" y="210" width="30" height="30" fill="#235c37" />
    <rect x="150" y="270" width="30" height="30" fill="#235c37" />
    <rect x="150" y="330" width="30" height="30" fill="#235c37" />
    <rect x="150" y="390" width="30" height="30" fill="#235c37" />
    <rect x="150" y="450" width="30" height="30" fill="#235c37" />
    <rect x="150" y="510" width="30" height="30" fill="#235c37" />
    <rect x="150" y="570" width="30" height="30" fill="#235c37" />
    <rect x="180" y="0" width="30" height="30" fill="#235c37" />
    <rect x="180" y="60" width="30" height="30" fill="#235c37" />
    <rect x="180" y="120" width="30" height="30" fill="#235c37" />
    <rect x="180" y="180" width="30" height="30" fill="#235c37" />
    <rect x="180" y="240" width="30" height="30" fill="#235c37" />
    <rect x="180" y="300" width="30" height="30" fill="#235c37" />
    <rect x="180" y="360" width="30" height="30" fill="#235c37" />
    <rect x="180" y="420" width="30" height="30" fill="#235c37" />
    <rect x="180" y="480" width="30" height="30" fill="#235c37" />
    <rect x="180" y="540" width="30" height="30" fill="#235c37" />
    <rect x="210" y="30" width="30" height="30" fill="#235c37" />
    <rect x="210" y="90" width="30" height="30" fill="#235c37" />
    <rect x="210" y="150" width="30" height="30" fill="#235c37" />
    <rect x="210" y="210" width="30" height="30" fill="#235c37" />
    <rect x="210" y="270" width="30" height="30" fill="#235c37" />
    <rect x="210" y="330" width="30" height="30" fill="#235c37" />
    <rect x="210" y="390" width="30" height="30" fill="#235c37" />
    <rect x="210" y="450" width="30" height="30" fill="#235c37" />
    <rect x="210" y="510" width="30" height="30" fill="#235c37" />
    <rect x="210" y="570" width="30" height="30" fill="#235c37" />
    <rect x="240" y="0" width="30" height="30" fill="#235c37" />
    <rect x="240" y="60" width="30" height="30" fill="#235c37" />
    <rect x="240" y="120" width="30" height="30" fill="#235c37" />
    <rect x="240" y="180" width="30" height="30" fill="#235c37" />
    <rect x="240" y="240" width="30" height="30" fill="#235c37" />
    <rect x="240" y="300" width="30" height="30" fill="#235c37" />
    <rect x="240" y="360" width="30" height="30" fill="#235c37" />
    <rect x="240" y="420" width="30" height="30" fill="#235c37" />
    <rect x="240" y="480" width="30" height="30" fill="#235c37" />
    <rect x="240" y="540" width="30" height="30" fill="#235c37" />
    <rect x="270" y="30" width="30" height="30" fill="#235c37" />
    <rect x="270" y="90" width="30" height="30" fill="#235c37" />
    <rect x="270" y="150" width="30" height="30" fill="#235c37" />
    <rect x="270" y="210" width="30" height="30" fill="#235c37" />
    <rect x="270" y="270" width="30" height="30" fill="#235c37" />
    <rect x="270" y="330" width="30" height="30" fill="#235c37" />
    <rect x="270" y="390" width="30" height="30" fill="#235c37" />
    <rect x="270" y="450" width="30" height="30" fill="#235c37" />
    <rect x="270" y="510" width="30" height="30" fill="#235c37" />
    <rect x="270" y="570" width="30" height="30" fill="#235c37" />
    <rect x="300" y="0" width="30" height="30" fill="#235c37" />
    <rect x="300" y="60" width="30" height="30" fill="#235c37" />
    <rect x="300" y="120" width="30" height="30" fill="#235c37" />
    <rect x="300" y="180" width="30" height="30" fill="#235c37" />
    <rect x="300" y="240" width="30" height="30" fill="#235c37" />
    <rect x="300" y="300" width="30" height="30" fill="#235c37" />
    <rect x="300" y="360" width="30" height="30" fill="#235c37" />
    <rect x="300" y="420" width="30" height="30" fill="#235c37" />
    <rect x="300" y="480" width="30" height="30" fill="#235c37" />
    <rect x="300" y="540" width="30" height="30" fill="#235c37" />
    <rect x="330" y="30" width="30" height="30" fill="#235c37" />
    <rect x="330" y="90" width="30" height="30" fill="#235c37" />
    <rect x="330" y="150" width="30" height="30" fill="#235c37" />
    <rect x="330" y="210" width="30" height="30" fill="#235c37" />
    <rect x="330" y="270" width="30" height="30" fill="#235c37" />
    <rect x="330" y="330" width="30" height="30" fill="#235c37" />
    <rect x="330" y="390" width="30" height="30" fill="#235c37" />
    <rect x="330" y="450" width="30" height="30" fill="#235c37" />
    <rect x="330" y="510" width="30" height="30" fill="#235c37" />
    <rect x="330" y="570" width="30" height="30" fill="#235c37" />
    <rect x="360" y="0" width="30" height="30" fill="#235c37" />
    <rect x="360" y="60" width="30" height="30" fill="#235c37" />
    <rect x="360" y="120" width="30" height="30" fill="#235c37" />
    <rect x="360" y="180" width="30" height="30" fill="#235c37" />
    <rect x="360" y="240" width="30" height="30" fill="#235c37" />
    <rect x="360" y="300" width="30" height="30" fill="#235c37" />
    <rect x="360" y="360" width="30" height="30" fill="#235c37" />
    <rect x="360" y="420" width="30" height="30" fill="#235c37" />
    <rect x="360" y="480" width="30" height="30" fill="#235c37" />
    <rect x="360" y="540" width="30" height="30" fill="#235c37" />
    <rect x="390" y="30" width="30" height="30" fill="#235c37" />
    <rect x="390" y="90" width="30" height="30" fill="#235c37" />
    <rect x="390" y="150" width="30" height="30" fill="#235c37" />
    <rect x="390" y="210" width="30" height="30" fill="#235c37" />
    <rect x="390" y="270" width="30" height="30" fill="#235c37" />
    <rect x="390" y="330" width="30" height="30" fill="#235c37" />
    <rect x="390" y="390" width="30" height="30" fill="#235c37" />
    <rect x="390" y="450" width="30" height="30" fill="#235c37" />
    <rect x="390" y="510" width="30" height="30" fill="#235c37" />
    <rect x="390" y="570" width="30" height="30" fill="#235c37" />
    <rect x="420" y="0" width="30" height="30" fill="#235c37" />
    <rect x="420" y="60" width="30" height="30" fill="#235c37" />
    <rect x="420" y="120" width="30" height="30" fill="#235c37" />
    <rect x="420" y="180" width="30" height="30" fill="#235c37" />
    <rect x="420" y="240" width="30" height="30" fill="#235c37" />
    <rect x="420" y="300" width="30" height="30" fill="#235c37" />
    <rect x="420" y="360" width="30" height="30" fill="#235c37" />
    <rect x="420" y="420" width="30" height="30" fill="#235c37" />
    <rect x="420" y="480" width="30" height="30" fill="#235c37" />
    <rect x="420" y="540" width="30" height="30" fill="#235c37" />
    <rect x="450" y="30" width="30" height="30" fill="#235c37" />
    <rect x="450" y="90" width="30" height="30" fill="#235c37" />
    <rect x="450" y="150" width="30" height="30" fill="#235c37" />
    <rect x="450" y="210" width="30" height="30" fill="#235c37" />
    <rect x="450" y="270" width="30" height="30" fill="#235c37" />
    <rect x="450" y="330" width="30" height="30" fill="#235c37" />
    <rect x="450" y="390" width="30" height="30" fill="#235c37" />
    <rect x="450" y="450" width="30" height="30" fill="#235c37" />
    <rect x="450" y="510" width="30" height="30" fill="#235c37" />
    <rect x="450" y="570" width="30" height="30" fill="#235c37" />
    <rect x="480" y="0" width="30" height="30" fill="#235c37" />
    <rect x="480" y="60" width="30" height="30" fill="#235c37" />
    <rect x="480" y="120" width="30" height="30" fill="#235c37" />
    <rect x="480" y="180" width="30" height="30" fill="#235c37" />
    <rect x="480" y="240" width="30" height="30" fill="#235c37" />
    <rect x="480" y="300" width="30" height="30" fill="#235c37" />
    <rect x="480" y="360" width="30" height="30" fill="#235c37" />
    <rect x="480" y="420" width="30" height="30" fill="#235c37" />
    <rect x="480" y="480" width="30" height="30" fill="#235c37" />
    <rect x="480" y="540" width="30" height="30" fill="#235c37" />
    <rect x="510" y="30" width="30" height="30" fill="#235c37" />
    <rect x="510" y="90" width="30" height="30" fill="#235c37" />
    <rect x="510" y="150" width="30" height="30" fill="#235c37" />
    <rect x="510" y="210" width="30" height="30" fill="#235c37" />
    <rect x="510" y="270" width="30" height="30" fill="#235c37" />
    <rect x="510" y="330" width="30" height="30" fill="#235c37" />
    <rect x="510" y="390" width="30" height="30" fill="#235c37" />
    <rect x="510" y="450" width="30" height="30" fill="#235c37" />
    <rect x="510" y="510" width="30" height="30" fill="#235c37" />
    <rect x="510" y="570" width="30" height="30" fill="#235c37" />
    <rect x="540" y="0" width="30" height="30" fill="#235c37" />
    <rect x="540" y="60" width="30" height="30" fill="#235c37" />
    <rect x="540" y="120" width="30" height="30" fill="#235c37" />
    <rect x="540" y="180" width="30" height="30" fill="#235c37" />
    <rect x="540" y="240" width="30" height="30" fill="#235c37" />
    <rect x="540" y="300" width="30" height="30" fill="#235c37" />
    <rect x="540" y="360" width="30" height="30" fill="#235c37" />
    <rect x="540" y="420" width="30" height="30" fill="#235c37" />
    <rect x="540" y="480" width="30" height="30" fill="#235c37" />
    <rect x="540" y="540" width="30" height="30" fill="#235c37" />
    <rect x="570" y="30" width="30" height="30" fill="#235c37" />
    <rect x="570" y="90" width="30" height="30" fill="#235c37" />
    <rect x="570" y="150" width="30" height="30" fill="#235c37" />
    <rect x="570" y="210" width="30" height="30" fill="#235c37" />
    <rect x="570" y="270" width="30" height="30" fill="#235c37" />
    <rect x="570" y="330" width="30" height="30" fill="#235c37" />
    <rect x="570" y="390" width="30" height="30" fill="#235c37" />
    <rect x="570" y="450" width="30" height="30" fill="#235c37" />
    <rect x="570" y="510" width="30" height="30" fill="#235c37" />
    <rect x="570" y="570" width="30" height="30" fill="#235c37" />
    <rect x="600" y="0" width="30" height="30" fill="#235c37" />
    <rect x="600" y="60" width="30" height="30" fill="#235c37" />
    <rect x="600" y="120" width="30" height="30" fill="#235c37" />
    <rect x="600" y="180" width="30" height="30" fill="#235c37" />
    <rect x="600" y="240" width="30" height="30" fill="#235c37" />
    <rect x="600" y="300" width="30" height="30" fill="#235c37" />
    <rect x="600" y="360" width="30" height="30" fill="#235c37" />
    <rect x="600" y="420" width="30" height="30" fill="#235c37" />
    <rect x="600" y="480" width="30" height="30" fill="#235c37" />
    <rect x="600" y="540" width="30" height="30" fill="#235c37" />
    <rect x="630" y="30" width="30" height="30" fill="#235c37" />
    <rect x="630" y="90" width="30" height="30" fill="#235c37" />
    <rect x="630" y="150" width="30" height="30" fill="#235c37" />
    <rect x="630" y="210" width="30" height="30" fill="#235c37" />
    <rect x="630" y="270" width="30" height="30" fill="#235c37" />
    <rect x="630" y="330" width="30" height="30" fill="#235c37" />
    <rect x="630" y="390" width="30" height="30" fill="#235c37" />
    <rect x="630" y="450" width="30" height="30" fill="#235c37" />
    <rect x="630" y="510" width="30" height="30" fill="#235c37" />
    <rect x="630" y="570" width="30" height="30" fill="#235c37" />
    <rect x="660" y="0" width="30" height="30" fill="#235c37" />
    <rect x="660" y="60" width="30" height="30" fill="#235c37" />
    <rect x="660" y="120" width="30" height="30" fill="#235c37" />
    <rect x="660" y="180" width="30" height="30" fill="#235c37" />
    <rect x="660" y="240" width="30" height="30" fill="#235c37" />
    <rect x="660" y="300" width="30" height="30" fill="#235c37" />
    <rect x="660" y="360" width="30" height="30" fill="#235c37" />
    <rect x="660" y="420" width="30" height="30" fill="#235c37" />
    <rect x="660" y="480" width="30" height="30" fill="#235c37" />
    <rect x="660" y="540" width="30" height="30" fill="#235c37" />
    <rect x="690" y="30" width="30" height="30" fill="#235c37" />
    <rect x="690" y="90" width="30" height="30" fill="#235c37" />
    <rect x="690" y="150" width="30" height="30" fill="#235c37" />
    <rect x="690" y="210" width="30" height="30" fill="#235c37" />
    <rect x="690" y="270" width="30" height="30" fill="#235c37" />
    <rect x="690" y="330" width="30" height="30" fill="#235c37" />
    <rect x="690" y="390" width="30" height="30" fill="#235c37" />
    <rect x="690" y="450" width="30" height="30" fill="#235c37" />
    <rect x="690" y="510" width="30" height="30" fill="#235c37" />
    <rect x="690" y="570" width="30" height="30" fill="#235c37" />
    <rect x="720" y="0" width="30" height="30" fill="#235c37" />
    <rect x="720" y="60" width="30" height="30" fill="#235c37" />
    <rect x="720" y="120" width="30" height="30" fill="#235c37" />
    <rect x="720" y="180" width="30" height="30" fill="#235c37" />
    <rect x="720" y="240" width="30" height="30" fill="#235c37" />
    <rect x="720" y="300" width="30" height="30" fill="#235c37" />
    <rect x="720" y="360" width="30" height="30" fill="#235c37" />
    <rect x="720" y="420" width="30" height="30" fill="#235c37" />
    <rect x="720" y="480" width="30" height="30" fill="#235c37" />
    <rect x="720" y="540" width="30" height="30" fill="#235c37" />
    <rect x="750" y="30" width="30" height="30" fill="#235c37" />
    <rect x="750" y="90" width="30" height="30" fill="#235c37" />
    <rect x="750" y="150" width="30" height="30" fill="#235c37" />
    <rect x="750" y="210" width="30" height="30" fill="#235c37" />
    <rect x="750" y="270" width="30" height="30" fill="#235c37" />
    <rect x="750" y="330" width="30" height="30" fill="#235c37" />
    <rect x="750" y="390" width="30" height="30" fill="#235c37" />
    <rect x="750" y="450" width="30" height="30" fill="#235c37" />
    <rect x="750" y="510" width="30" height="30" fill="#235c37" />
    <rect x="750" y="570" width="30" height="30" fill="#235c37" />
    <rect x="780" y="0" width="30" height="30" fill="#235c37" />
    <rect x="780" y="60" width="30" height="30" fill="#235c37" />
    <rect x="780" y="120" width="30" height="30" fill="#235c37" />
    <rect x="780" y="180" width="30" height="30" fill="#235c37" />
    <rect x="780" y="240" width="30" height="30" fill="#235c37" />
    <rect x="780" y="300" width="30" height="30" fill="#235c37" />
    <rect x="780" y="360" width="30" height="30" fill="#235c37" />
    <rect x="780" y="420" width="30" height="30" fill="#235c37" />
    <rect x="780" y="480" width="30" height="30" fill="#235c37" />
    <rect x="780" y="540" width="30" height="30" fill="#235c37" />
    <rect x="810" y="30" width="30" height="30" fill="#235c37" />
    <rect x="810" y="90" width="30" height="30" fill="#235c37" />
    <rect x="810" y="150" width="30" height="30" fill="#235c37" />
    <rect x="810" y="210" width="30" height="30" fill="#235c37" />
    <rect x="810" y="270" width="30" height="30" fill="#235c37" />
    <rect x="810" y="330" width="30" height="30" fill="#235c37" />
    <rect x="810" y="390" width="30" height="30" fill="#235c37" />
    <rect x="810" y="450" width="30" height="30" fill="#235c37" />
    <rect x="810" y="510" width="30" height="30" fill="#235c37" />
    <rect x="810" y="570" width="30" height="30" fill="#235c37" />
    <rect x="840" y="0" width="30" height="30" fill="#235c37" />
    <rect x="840" y="60" width="30" height="30" fill="#235c37" />
    <rect x="840" y="120" width="30" height="30" fill="#235c37" />
    <rect x="840" y="180" width="30" height="30" fill="#235c37" />
    <rect x="840" y="240" width="30" height="30" fill="#235c37" />
    <rect x="840" y="300" width="30" height="30" fill="#235c37" />
    <rect x="840" y="360" width="30" height="30" fill="#235c37" />
    <rect x="840" y="420" width="30" height="30" fill="#235c37" />
    <rect x="840" y="480" width="30" height="30" fill="#235c37" />
    <rect x="840" y="540" width="30" height="30" fill="#235c37" />
    <rect x="870" y="30" width="30" height="30" fill="#235c37" />
    <rect x="870" y="90" width="30" height="30" fill="#235c37" />
    <rect x="870" y="150" width="30" height="30" fill="#235c37" />
    <rect x="870" y="210" width="30" height="30" fill="#235c37" />
    <rect x="870" y="270" width="30" height="30" fill="#235c37" />
    <rect x="870" y="330" width="30" height="30" fill="#235c37" />
    <rect x="870" y="390" width="30" height="30" fill="#235c37" />
    <rect x="870" y="450" width="30" height="30" fill="#235c37" />
    <rect x="870" y="510" width="30" height="30" fill="#235c37" />
    <rect x="870" y="570" width="30" height="30" fill="#235c37" />
    <rect x="900" y="0" width="30" height="30" fill="#235c37" />
    <rect x="900" y="60" width="30" height="30" fill="#235c37" />
    <rect x="900" y="120" width="30" height="30" fill="#235c37" />
    <rect x="900" y="180" width="30" height="30" fill="#235c37" />
    <rect x="900" y="240" width="30" height="30" fill="#235c37" />
    <rect x="900" y="300" width="30" height="30" fill="#235c37" />
    <rect x="900" y="360" width="30" height="30" fill="#235c37" />
    <rect x="900" y="420" width="30" height="30" fill="#235c37" />
    <rect x="900" y="480" width="30" height="30" fill="#235c37" />
    <rect x="900" y="540" width="30" height="30" fill="#235c37" />
    <rect x="930" y="30" width="30" height="30" fill="#235c37" />
    <rect x="930" y="90" width="30" height="30" fill="#235c37" />
    <rect x="930" y="150" width="30" height="30" fill="#235c37" />
    <rect x="930" y="210" width="30" height="30" fill="#235c37" />
    <rect x="930" y="270" width="30" height="30" fill="#235c37" />
    <rect x="930" y="330" width="30" height="30" fill="#235c37" />
    <rect x="930" y="390" width="30" height="30" fill="#235c37" />
    <rect x="930" y="450" width="30" height="30" fill="#235c37" />
    <rect x="930" y="510" width="30" height="30" fill="#235c37" />
    <rect x="930" y="570" width="30" height="30" fill="#235c37" />
    <rect x="960" y="0" width="30" height="30" fill="#235c37" />
    <rect x="960" y="60" width="30" height="30" fill="#235c37" />
    <rect x="960" y="120" width="30" height="30" fill="#235c37" />
    <rect x="960" y="180" width="30" height="30" fill="#235c37" />
    <rect x="960" y="240" width="30" height="30" fill="#235c37" />
    <rect x="960" y="300" width="30" height="30" fill="#235c37" />
    <rect x="960" y="360" width="30" height="30" fill="#235c37" />
    <rect x="960" y="420" width="30" height="30" fill="#235c37" />
    <rect x="960" y="480" width="30" height="30" fill="#235c37" />
    <rect x="960" y="540" width="30" height="30" fill="#235c37" />
    <rect x="990" y="30" width="30" height="30" fill="#235c37" />
    <rect x="990" y="90" width="30" height="30" fill="#235c37" />
    <rect x="990" y="150" width="30" height="30" fill="#235c37" />
    <rect x="990" y="210" width="30" height="30" fill="#235c37" />
    <rect x="990" y="270" width="30" height="30" fill="#235c37" />
    <rect x="990" y="330" width="30" height="30" fill="#235c37" />
    <rect x="990" y="390" width="30" height="30" fill="#235c37" />
    <rect x="990" y="450" width="30" height="30" fill="#235c37" />
    <rect x="990" y="510" width="30" height="30" fill="#235c37" />
    <rect x="990" y="570" width="30" height="30" fill="#235c37" />

    <!-- Center line -->
    <line x1="500" y1="0" x2="500" y2="600" stroke="white" stroke-width="2" />
    
    <!-- Center circle -->
    <circle cx="500" cy="300" r="60" stroke="white" stroke-width="2" fill="none" />
    
    <!-- Center spot -->
    <circle cx="500" cy="300" r="3" fill="white" />
    
    <!-- Field boundaries -->
    <line x1="45" y1="0" x2="955" y2="0" stroke="white" stroke-width="2" />
    <line x1="45" y1="600" x2="955" y2="600" stroke="white" stroke-width="2" />
    
    <!-- Left fence (excluding goal) -->
    <line x1="45" y1="0" x2="45" y2="250" stroke="white" stroke-width="2" />
    <line x1="45" y1="350" x2="45" y2="600" stroke="white" stroke-width="2" />
    
    <!-- Right fence (excluding goal) -->
    <line x1="955" y1="0" x2="955" y2="250" stroke="white" stroke-width="2" />
    <line x1="955" y1="350" x2="955" y2="600" stroke="white" stroke-width="2" />
    
    <!-- Left goal (red) -->
    <path d="M 45 250 A 50 50 0 0 0 45 350" stroke="red" stroke-width="3" fill="none" />
    <circle cx="45" cy="250" r="4" fill="red" />
    <circle cx="45" cy="350" r="4" fill="red" />
    
    <!-- Left goal area -->
    <rect x="0" y="250" width="45" height="100" fill="rgba(231, 76, 60, 0.2)" />
    
    <!-- Right goal (blue) -->
    <path d="M 955 250 A 50 50 0 0 1 955 350" stroke="blue" stroke-width="3" fill="none" />
    <circle cx="955" cy="250" r="4" fill="blue" />
    <circle cx="955" cy="350" r="4" fill="blue" />
    
    <!-- Right goal area -->
    <rect x="955" y="250" width="45" height="100" fill="rgba(52, 152, 219, 0.2)" />
    
    <!-- Add stadium size indicator -->
    <text x="500" y="20" text-anchor="middle" fill="white" font-weight="bold" font-size="16">Medium Stadium</text>
    <text x="500" y="48" text-anchor="middle" fill="white" font-size="14">1000×600</text>
    
    <!-- Add sample players for scale -->
    <!-- Red team players -->
    <circle cx="111.66666666666667" cy="225" r="15" fill="rgba(231, 76, 60, 0.8)" stroke="white" stroke-width="1" />
    <circle cx="128.33333333333331" cy="375" r="15" fill="rgba(231, 76, 60, 0.8)" stroke="white" stroke-width="1" />
    <circle cx="170" cy="300" r="15" fill="rgba(231, 76, 60, 0.8)" stroke="white" stroke-width="1" />
    
    <!-- Blue team players -->
    <circle cx="888.3333333333334" cy="225" r="15" fill="rgba(52, 152, 219, 0.8)" stroke="white" stroke-width="1" />
    <circle cx="871.6666666666666" cy="375" r="15" fill="rgba(52, 152, 219, 0.8)" stroke="white" stroke-width="1" />
    <circle cx="830" cy="300" r="15" fill="rgba(52, 152, 219, 0.8)" stroke="white" stroke-width="1" />
    
    <!-- Ball -->
    <circle cx="500" cy="300" r="10" fill="white" stroke="#ddd" stroke-width="1" />
</svg>