<?xml version="1.0" encoding="UTF-8" standalone="no"?>
<svg width="1300" height="800" viewBox="0 0 1300 800" xmlns="http://www.w3.org/2000/svg">
    <!-- Field background -->
    <rect width="1300" height="800" fill="#1a472a" />
    
    <!-- Field pattern - checkerboard -->
    <rect x="0" y="0" width="39" height="39" fill="#235c37" />
    <rect x="0" y="78" width="39" height="39" fill="#235c37" />
    <rect x="0" y="156" width="39" height="39" fill="#235c37" />
    <rect x="0" y="234" width="39" height="39" fill="#235c37" />
    <rect x="0" y="312" width="39" height="39" fill="#235c37" />
    <rect x="0" y="390" width="39" height="39" fill="#235c37" />
    <rect x="0" y="468" width="39" height="39" fill="#235c37" />
    <rect x="0" y="546" width="39" height="39" fill="#235c37" />
    <rect x="0" y="624" width="39" height="39" fill="#235c37" />
    <rect x="0" y="702" width="39" height="39" fill="#235c37" />
    <rect x="0" y="780" width="39" height="39" fill="#235c37" />
    <rect x="39" y="39" width="39" height="39" fill="#235c37" />
    <rect x="39" y="117" width="39" height="39" fill="#235c37" />
    <rect x="39" y="195" width="39" height="39" fill="#235c37" />
    <rect x="39" y="273" width="39" height="39" fill="#235c37" />
    <rect x="39" y="351" width="39" height="39" fill="#235c37" />
    <rect x="39" y="429" width="39" height="39" fill="#235c37" />
    <rect x="39" y="507" width="39" height="39" fill="#235c37" />
    <rect x="39" y="585" width="39" height="39" fill="#235c37" />
    <rect x="39" y="663" width="39" height="39" fill="#235c37" />
    <rect x="39" y="741" width="39" height="39" fill="#235c37" />
    <rect x="78" y="0" width="39" height="39" fill="#235c37" />
    <rect x="78" y="78" width="39" height="39" fill="#235c37" />
    <rect x="78" y="156" width="39" height="39" fill="#235c37" />
    <rect x="78" y="234" width="39" height="39" fill="#235c37" />
    <rect x="78" y="312" width="39" height="39" fill="#235c37" />
    <rect x="78" y="390" width="39" height="39" fill="#235c37" />
    <rect x="78" y="468" width="39" height="39" fill="#235c37" />
    <rect x="78" y="546" width="39" height="39" fill="#235c37" />
    <rect x="78" y="624" width="39" height="39" fill="#235c37" />
    <rect x="78" y="702" width="39" height="39" fill="#235c37" />
    <rect x="78" y="780" width="39" height="39" fill="#235c37" />
    <rect x="117" y="39" width="39" height="39" fill="#235c37" />
    <rect x="117" y="117" width="39" height="39" fill="#235c37" />
    <rect x="117" y="195" width="39" height="39" fill="#235c37" />
    <rect x="117" y="273" width="39" height="39" fill="#235c37" />
    <rect x="117" y="351" width="39" height="39" fill="#235c37" />
    <rect x="117" y="429" width="39" height="39" fill="#235c37" />
    <rect x="117" y="507" width="39" height="39" fill="#235c37" />
    <rect x="117" y="585" width="39" height="39" fill="#235c37" />
    <rect x="117" y="663" width="39" height="39" fill="#235c37" />
    <rect x="117" y="741" width="39" height="39" fill="#235c37" />
    <rect x="156" y="0" width="39" height="39" fill="#235c37" />
    <rect x="156" y="78" width="39" height="39" fill="#235c37" />
    <rect x="156" y="156" width="39" height="39" fill="#235c37" />
    <rect x="156" y="234" width="39" height="39" fill="#235c37" />
    <rect x="156" y="312" width="39" height="39" fill="#235c37" />
    <rect x="156" y="390" width="39" height="39" fill="#235c37" />
    <rect x="156" y="468" width="39" height="39" fill="#235c37" />
    <rect x="156" y="546" width="39" height="39" fill="#235c37" />
    <rect x="156" y="624" width="39" height="39" fill="#235c37" />
    <rect x="156" y="702" width="39" height="39" fill="#235c37" />
    <rect x="156" y="780" width="39" height="39" fill="#235c37" />
    <rect x="195" y="39" width="39" height="39" fill="#235c37" />
    <rect x="195" y="117" width="39" height="39" fill="#235c37" />
    <rect x="195" y="195" width="39" height="39" fill="#235c37" />
    <rect x="195" y="273" width="39" height="39" fill="#235c37" />
    <rect x="195" y="351" width="39" height="39" fill="#235c37" />
    <rect x="195" y="429" width="39" height="39" fill="#235c37" />
    <rect x="195" y="507" width="39" height="39" fill="#235c37" />
    <rect x="195" y="585" width="39" height="39" fill="#235c37" />
    <rect x="195" y="663" width="39" height="39" fill="#235c37" />
    <rect x="195" y="741" width="39" height="39" fill="#235c37" />
    <rect x="234" y="0" width="39" height="39" fill="#235c37" />
    <rect x="234" y="78" width="39" height="39" fill="#235c37" />
    <rect x="234" y="156" width="39" height="39" fill="#235c37" />
    <rect x="234" y="234" width="39" height="39" fill="#235c37" />
    <rect x="234" y="312" width="39" height="39" fill="#235c37" />
    <rect x="234" y="390" width="39" height="39" fill="#235c37" />
    <rect x="234" y="468" width="39" height="39" fill="#235c37" />
    <rect x="234" y="546" width="39" height="39" fill="#235c37" />
    <rect x="234" y="624" width="39" height="39" fill="#235c37" />
    <rect x="234" y="702" width="39" height="39" fill="#235c37" />
    <rect x="234" y="780" width="39" height="39" fill="#235c37" />
    <rect x="273" y="39" width="39" height="39" fill="#235c37" />
    <rect x="273" y="117" width="39" height="39" fill="#235c37" />
    <rect x="273" y="195" width="39" height="39" fill="#235c37" />
    <rect x="273" y="273" width="39" height="39" fill="#235c37" />
    <rect x="273" y="351" width="39" height="39" fill="#235c37" />
    <rect x="273" y="429" width="39" height="39" fill="#235c37" />
    <rect x="273" y="507" width="39" height="39" fill="#235c37" />
    <rect x="273" y="585" width="39" height="39" fill="#235c37" />
    <rect x="273" y="663" width="39" height="39" fill="#235c37" />
    <rect x="273" y="741" width="39" height="39" fill="#235c37" />
    <rect x="312" y="0" width="39" height="39" fill="#235c37" />
    <rect x="312" y="78" width="39" height="39" fill="#235c37" />
    <rect x="312" y="156" width="39" height="39" fill="#235c37" />
    <rect x="312" y="234" width="39" height="39" fill="#235c37" />
    <rect x="312" y="312" width="39" height="39" fill="#235c37" />
    <rect x="312" y="390" width="39" height="39" fill="#235c37" />
    <rect x="312" y="468" width="39" height="39" fill="#235c37" />
    <rect x="312" y="546" width="39" height="39" fill="#235c37" />
    <rect x="312" y="624" width="39" height="39" fill="#235c37" />
    <rect x="312" y="702" width="39" height="39" fill="#235c37" />
    <rect x="312" y="780" width="39" height="39" fill="#235c37" />
    <rect x="351" y="39" width="39" height="39" fill="#235c37" />
    <rect x="351" y="117" width="39" height="39" fill="#235c37" />
    <rect x="351" y="195" width="39" height="39" fill="#235c37" />
    <rect x="351" y="273" width="39" height="39" fill="#235c37" />
    <rect x="351" y="351" width="39" height="39" fill="#235c37" />
    <rect x="351" y="429" width="39" height="39" fill="#235c37" />
    <rect x="351" y="507" width="39" height="39" fill="#235c37" />
    <rect x="351" y="585" width="39" height="39" fill="#235c37" />
    <rect x="351" y="663" width="39" height="39" fill="#235c37" />
    <rect x="351" y="741" width="39" height="39" fill="#235c37" />
    <rect x="390" y="0" width="39" height="39" fill="#235c37" />
    <rect x="390" y="78" width="39" height="39" fill="#235c37" />
    <rect x="390" y="156" width="39" height="39" fill="#235c37" />
    <rect x="390" y="234" width="39" height="39" fill="#235c37" />
    <rect x="390" y="312" width="39" height="39" fill="#235c37" />
    <rect x="390" y="390" width="39" height="39" fill="#235c37" />
    <rect x="390" y="468" width="39" height="39" fill="#235c37" />
    <rect x="390" y="546" width="39" height="39" fill="#235c37" />
    <rect x="390" y="624" width="39" height="39" fill="#235c37" />
    <rect x="390" y="702" width="39" height="39" fill="#235c37" />
    <rect x="390" y="780" width="39" height="39" fill="#235c37" />
    <rect x="429" y="39" width="39" height="39" fill="#235c37" />
    <rect x="429" y="117" width="39" height="39" fill="#235c37" />
    <rect x="429" y="195" width="39" height="39" fill="#235c37" />
    <rect x="429" y="273" width="39" height="39" fill="#235c37" />
    <rect x="429" y="351" width="39" height="39" fill="#235c37" />
    <rect x="429" y="429" width="39" height="39" fill="#235c37" />
    <rect x="429" y="507" width="39" height="39" fill="#235c37" />
    <rect x="429" y="585" width="39" height="39" fill="#235c37" />
    <rect x="429" y="663" width="39" height="39" fill="#235c37" />
    <rect x="429" y="741" width="39" height="39" fill="#235c37" />
    <rect x="468" y="0" width="39" height="39" fill="#235c37" />
    <rect x="468" y="78" width="39" height="39" fill="#235c37" />
    <rect x="468" y="156" width="39" height="39" fill="#235c37" />
    <rect x="468" y="234" width="39" height="39" fill="#235c37" />
    <rect x="468" y="312" width="39" height="39" fill="#235c37" />
    <rect x="468" y="390" width="39" height="39" fill="#235c37" />
    <rect x="468" y="468" width="39" height="39" fill="#235c37" />
    <rect x="468" y="546" width="39" height="39" fill="#235c37" />
    <rect x="468" y="624" width="39" height="39" fill="#235c37" />
    <rect x="468" y="702" width="39" height="39" fill="#235c37" />
    <rect x="468" y="780" width="39" height="39" fill="#235c37" />
    <rect x="507" y="39" width="39" height="39" fill="#235c37" />
    <rect x="507" y="117" width="39" height="39" fill="#235c37" />
    <rect x="507" y="195" width="39" height="39" fill="#235c37" />
    <rect x="507" y="273" width="39" height="39" fill="#235c37" />
    <rect x="507" y="351" width="39" height="39" fill="#235c37" />
    <rect x="507" y="429" width="39" height="39" fill="#235c37" />
    <rect x="507" y="507" width="39" height="39" fill="#235c37" />
    <rect x="507" y="585" width="39" height="39" fill="#235c37" />
    <rect x="507" y="663" width="39" height="39" fill="#235c37" />
    <rect x="507" y="741" width="39" height="39" fill="#235c37" />
    <rect x="546" y="0" width="39" height="39" fill="#235c37" />
    <rect x="546" y="78" width="39" height="39" fill="#235c37" />
    <rect x="546" y="156" width="39" height="39" fill="#235c37" />
    <rect x="546" y="234" width="39" height="39" fill="#235c37" />
    <rect x="546" y="312" width="39" height="39" fill="#235c37" />
    <rect x="546" y="390" width="39" height="39" fill="#235c37" />
    <rect x="546" y="468" width="39" height="39" fill="#235c37" />
    <rect x="546" y="546" width="39" height="39" fill="#235c37" />
    <rect x="546" y="624" width="39" height="39" fill="#235c37" />
    <rect x="546" y="702" width="39" height="39" fill="#235c37" />
    <rect x="546" y="780" width="39" height="39" fill="#235c37" />
    <rect x="585" y="39" width="39" height="39" fill="#235c37" />
    <rect x="585" y="117" width="39" height="39" fill="#235c37" />
    <rect x="585" y="195" width="39" height="39" fill="#235c37" />
    <rect x="585" y="273" width="39" height="39" fill="#235c37" />
    <rect x="585" y="351" width="39" height="39" fill="#235c37" />
    <rect x="585" y="429" width="39" height="39" fill="#235c37" />
    <rect x="585" y="507" width="39" height="39" fill="#235c37" />
    <rect x="585" y="585" width="39" height="39" fill="#235c37" />
    <rect x="585" y="663" width="39" height="39" fill="#235c37" />
    <rect x="585" y="741" width="39" height="39" fill="#235c37" />
    <rect x="624" y="0" width="39" height="39" fill="#235c37" />
    <rect x="624" y="78" width="39" height="39" fill="#235c37" />
    <rect x="624" y="156" width="39" height="39" fill="#235c37" />
    <rect x="624" y="234" width="39" height="39" fill="#235c37" />
    <rect x="624" y="312" width="39" height="39" fill="#235c37" />
    <rect x="624" y="390" width="39" height="39" fill="#235c37" />
    <rect x="624" y="468" width="39" height="39" fill="#235c37" />
    <rect x="624" y="546" width="39" height="39" fill="#235c37" />
    <rect x="624" y="624" width="39" height="39" fill="#235c37" />
    <rect x="624" y="702" width="39" height="39" fill="#235c37" />
    <rect x="624" y="780" width="39" height="39" fill="#235c37" />
    <rect x="663" y="39" width="39" height="39" fill="#235c37" />
    <rect x="663" y="117" width="39" height="39" fill="#235c37" />
    <rect x="663" y="195" width="39" height="39" fill="#235c37" />
    <rect x="663" y="273" width="39" height="39" fill="#235c37" />
    <rect x="663" y="351" width="39" height="39" fill="#235c37" />
    <rect x="663" y="429" width="39" height="39" fill="#235c37" />
    <rect x="663" y="507" width="39" height="39" fill="#235c37" />
    <rect x="663" y="585" width="39" height="39" fill="#235c37" />
    <rect x="663" y="663" width="39" height="39" fill="#235c37" />
    <rect x="663" y="741" width="39" height="39" fill="#235c37" />
    <rect x="702" y="0" width="39" height="39" fill="#235c37" />
    <rect x="702" y="78" width="39" height="39" fill="#235c37" />
    <rect x="702" y="156" width="39" height="39" fill="#235c37" />
    <rect x="702" y="234" width="39" height="39" fill="#235c37" />
    <rect x="702" y="312" width="39" height="39" fill="#235c37" />
    <rect x="702" y="390" width="39" height="39" fill="#235c37" />
    <rect x="702" y="468" width="39" height="39" fill="#235c37" />
    <rect x="702" y="546" width="39" height="39" fill="#235c37" />
    <rect x="702" y="624" width="39" height="39" fill="#235c37" />
    <rect x="702" y="702" width="39" height="39" fill="#235c37" />
    <rect x="702" y="780" width="39" height="39" fill="#235c37" />
    <rect x="741" y="39" width="39" height="39" fill="#235c37" />
    <rect x="741" y="117" width="39" height="39" fill="#235c37" />
    <rect x="741" y="195" width="39" height="39" fill="#235c37" />
    <rect x="741" y="273" width="39" height="39" fill="#235c37" />
    <rect x="741" y="351" width="39" height="39" fill="#235c37" />
    <rect x="741" y="429" width="39" height="39" fill="#235c37" />
    <rect x="741" y="507" width="39" height="39" fill="#235c37" />
    <rect x="741" y="585" width="39" height="39" fill="#235c37" />
    <rect x="741" y="663" width="39" height="39" fill="#235c37" />
    <rect x="741" y="741" width="39" height="39" fill="#235c37" />
    <rect x="780" y="0" width="39" height="39" fill="#235c37" />
    <rect x="780" y="78" width="39" height="39" fill="#235c37" />
    <rect x="780" y="156" width="39" height="39" fill="#235c37" />
    <rect x="780" y="234" width="39" height="39" fill="#235c37" />
    <rect x="780" y="312" width="39" height="39" fill="#235c37" />
    <rect x="780" y="390" width="39" height="39" fill="#235c37" />
    <rect x="780" y="468" width="39" height="39" fill="#235c37" />
    <rect x="780" y="546" width="39" height="39" fill="#235c37" />
    <rect x="780" y="624" width="39" height="39" fill="#235c37" />
    <rect x="780" y="702" width="39" height="39" fill="#235c37" />
    <rect x="780" y="780" width="39" height="39" fill="#235c37" />
    <rect x="819" y="39" width="39" height="39" fill="#235c37" />
    <rect x="819" y="117" width="39" height="39" fill="#235c37" />
    <rect x="819" y="195" width="39" height="39" fill="#235c37" />
    <rect x="819" y="273" width="39" height="39" fill="#235c37" />
    <rect x="819" y="351" width="39" height="39" fill="#235c37" />
    <rect x="819" y="429" width="39" height="39" fill="#235c37" />
    <rect x="819" y="507" width="39" height="39" fill="#235c37" />
    <rect x="819" y="585" width="39" height="39" fill="#235c37" />
    <rect x="819" y="663" width="39" height="39" fill="#235c37" />
    <rect x="819" y="741" width="39" height="39" fill="#235c37" />
    <rect x="858" y="0" width="39" height="39" fill="#235c37" />
    <rect x="858" y="78" width="39" height="39" fill="#235c37" />
    <rect x="858" y="156" width="39" height="39" fill="#235c37" />
    <rect x="858" y="234" width="39" height="39" fill="#235c37" />
    <rect x="858" y="312" width="39" height="39" fill="#235c37" />
    <rect x="858" y="390" width="39" height="39" fill="#235c37" />
    <rect x="858" y="468" width="39" height="39" fill="#235c37" />
    <rect x="858" y="546" width="39" height="39" fill="#235c37" />
    <rect x="858" y="624" width="39" height="39" fill="#235c37" />
    <rect x="858" y="702" width="39" height="39" fill="#235c37" />
    <rect x="858" y="780" width="39" height="39" fill="#235c37" />
    <rect x="897" y="39" width="39" height="39" fill="#235c37" />
    <rect x="897" y="117" width="39" height="39" fill="#235c37" />
    <rect x="897" y="195" width="39" height="39" fill="#235c37" />
    <rect x="897" y="273" width="39" height="39" fill="#235c37" />
    <rect x="897" y="351" width="39" height="39" fill="#235c37" />
    <rect x="897" y="429" width="39" height="39" fill="#235c37" />
    <rect x="897" y="507" width="39" height="39" fill="#235c37" />
    <rect x="897" y="585" width="39" height="39" fill="#235c37" />
    <rect x="897" y="663" width="39" height="39" fill="#235c37" />
    <rect x="897" y="741" width="39" height="39" fill="#235c37" />
    <rect x="936" y="0" width="39" height="39" fill="#235c37" />
    <rect x="936" y="78" width="39" height="39" fill="#235c37" />
    <rect x="936" y="156" width="39" height="39" fill="#235c37" />
    <rect x="936" y="234" width="39" height="39" fill="#235c37" />
    <rect x="936" y="312" width="39" height="39" fill="#235c37" />
    <rect x="936" y="390" width="39" height="39" fill="#235c37" />
    <rect x="936" y="468" width="39" height="39" fill="#235c37" />
    <rect x="936" y="546" width="39" height="39" fill="#235c37" />
    <rect x="936" y="624" width="39" height="39" fill="#235c37" />
    <rect x="936" y="702" width="39" height="39" fill="#235c37" />
    <rect x="936" y="780" width="39" height="39" fill="#235c37" />
    <rect x="975" y="39" width="39" height="39" fill="#235c37" />
    <rect x="975" y="117" width="39" height="39" fill="#235c37" />
    <rect x="975" y="195" width="39" height="39" fill="#235c37" />
    <rect x="975" y="273" width="39" height="39" fill="#235c37" />
    <rect x="975" y="351" width="39" height="39" fill="#235c37" />
    <rect x="975" y="429" width="39" height="39" fill="#235c37" />
    <rect x="975" y="507" width="39" height="39" fill="#235c37" />
    <rect x="975" y="585" width="39" height="39" fill="#235c37" />
    <rect x="975" y="663" width="39" height="39" fill="#235c37" />
    <rect x="975" y="741" width="39" height="39" fill="#235c37" />
    <rect x="1014" y="0" width="39" height="39" fill="#235c37" />
    <rect x="1014" y="78" width="39" height="39" fill="#235c37" />
    <rect x="1014" y="156" width="39" height="39" fill="#235c37" />
    <rect x="1014" y="234" width="39" height="39" fill="#235c37" />
    <rect x="1014" y="312" width="39" height="39" fill="#235c37" />
    <rect x="1014" y="390" width="39" height="39" fill="#235c37" />
    <rect x="1014" y="468" width="39" height="39" fill="#235c37" />
    <rect x="1014" y="546" width="39" height="39" fill="#235c37" />
    <rect x="1014" y="624" width="39" height="39" fill="#235c37" />
    <rect x="1014" y="702" width="39" height="39" fill="#235c37" />
    <rect x="1014" y="780" width="39" height="39" fill="#235c37" />
    <rect x="1053" y="39" width="39" height="39" fill="#235c37" />
    <rect x="1053" y="117" width="39" height="39" fill="#235c37" />
    <rect x="1053" y="195" width="39" height="39" fill="#235c37" />
    <rect x="1053" y="273" width="39" height="39" fill="#235c37" />
    <rect x="1053" y="351" width="39" height="39" fill="#235c37" />
    <rect x="1053" y="429" width="39" height="39" fill="#235c37" />
    <rect x="1053" y="507" width="39" height="39" fill="#235c37" />
    <rect x="1053" y="585" width="39" height="39" fill="#235c37" />
    <rect x="1053" y="663" width="39" height="39" fill="#235c37" />
    <rect x="1053" y="741" width="39" height="39" fill="#235c37" />
    <rect x="1092" y="0" width="39" height="39" fill="#235c37" />
    <rect x="1092" y="78" width="39" height="39" fill="#235c37" />
    <rect x="1092" y="156" width="39" height="39" fill="#235c37" />
    <rect x="1092" y="234" width="39" height="39" fill="#235c37" />
    <rect x="1092" y="312" width="39" height="39" fill="#235c37" />
    <rect x="1092" y="390" width="39" height="39" fill="#235c37" />
    <rect x="1092" y="468" width="39" height="39" fill="#235c37" />
    <rect x="1092" y="546" width="39" height="39" fill="#235c37" />
    <rect x="1092" y="624" width="39" height="39" fill="#235c37" />
    <rect x="1092" y="702" width="39" height="39" fill="#235c37" />
    <rect x="1092" y="780" width="39" height="39" fill="#235c37" />
    <rect x="1131" y="39" width="39" height="39" fill="#235c37" />
    <rect x="1131" y="117" width="39" height="39" fill="#235c37" />
    <rect x="1131" y="195" width="39" height="39" fill="#235c37" />
    <rect x="1131" y="273" width="39" height="39" fill="#235c37" />
    <rect x="1131" y="351" width="39" height="39" fill="#235c37" />
    <rect x="1131" y="429" width="39" height="39" fill="#235c37" />
    <rect x="1131" y="507" width="39" height="39" fill="#235c37" />
    <rect x="1131" y="585" width="39" height="39" fill="#235c37" />
    <rect x="1131" y="663" width="39" height="39" fill="#235c37" />
    <rect x="1131" y="741" width="39" height="39" fill="#235c37" />
    <rect x="1170" y="0" width="39" height="39" fill="#235c37" />
    <rect x="1170" y="78" width="39" height="39" fill="#235c37" />
    <rect x="1170" y="156" width="39" height="39" fill="#235c37" />
    <rect x="1170" y="234" width="39" height="39" fill="#235c37" />
    <rect x="1170" y="312" width="39" height="39" fill="#235c37" />
    <rect x="1170" y="390" width="39" height="39" fill="#235c37" />
    <rect x="1170" y="468" width="39" height="39" fill="#235c37" />
    <rect x="1170" y="546" width="39" height="39" fill="#235c37" />
    <rect x="1170" y="624" width="39" height="39" fill="#235c37" />
    <rect x="1170" y="702" width="39" height="39" fill="#235c37" />
    <rect x="1170" y="780" width="39" height="39" fill="#235c37" />
    <rect x="1209" y="39" width="39" height="39" fill="#235c37" />
    <rect x="1209" y="117" width="39" height="39" fill="#235c37" />
    <rect x="1209" y="195" width="39" height="39" fill="#235c37" />
    <rect x="1209" y="273" width="39" height="39" fill="#235c37" />
    <rect x="1209" y="351" width="39" height="39" fill="#235c37" />
    <rect x="1209" y="429" width="39" height="39" fill="#235c37" />
    <rect x="1209" y="507" width="39" height="39" fill="#235c37" />
    <rect x="1209" y="585" width="39" height="39" fill="#235c37" />
    <rect x="1209" y="663" width="39" height="39" fill="#235c37" />
    <rect x="1209" y="741" width="39" height="39" fill="#235c37" />
    <rect x="1248" y="0" width="39" height="39" fill="#235c37" />
    <rect x="1248" y="78" width="39" height="39" fill="#235c37" />
    <rect x="1248" y="156" width="39" height="39" fill="#235c37" />
    <rect x="1248" y="234" width="39" height="39" fill="#235c37" />
    <rect x="1248" y="312" width="39" height="39" fill="#235c37" />
    <rect x="1248" y="390" width="39" height="39" fill="#235c37" />
    <rect x="1248" y="468" width="39" height="39" fill="#235c37" />
    <rect x="1248" y="546" width="39" height="39" fill="#235c37" />
    <rect x="1248" y="624" width="39" height="39" fill="#235c37" />
    <rect x="1248" y="702" width="39" height="39" fill="#235c37" />
    <rect x="1248" y="780" width="39" height="39" fill="#235c37" />
    <rect x="1287" y="39" width="39" height="39" fill="#235c37" />
    <rect x="1287" y="117" width="39" height="39" fill="#235c37" />
    <rect x="1287" y="195" width="39" height="39" fill="#235c37" />
    <rect x="1287" y="273" width="39" height="39" fill="#235c37" />
    <rect x="1287" y="351" width="39" height="39" fill="#235c37" />
    <rect x="1287" y="429" width="39" height="39" fill="#235c37" />
    <rect x="1287" y="507" width="39" height="39" fill="#235c37" />
    <rect x="1287" y="585" width="39" height="39" fill="#235c37" />
    <rect x="1287" y="663" width="39" height="39" fill="#235c37" />
    <rect x="1287" y="741" width="39" height="39" fill="#235c37" />

    <!-- Center line -->
    <line x1="650" y1="0" x2="650" y2="800" stroke="white" stroke-width="2" />
    
    <!-- Center circle -->
    <circle cx="650" cy="400" r="78" stroke="white" stroke-width="2" fill="none" />
    
    <!-- Center spot -->
    <circle cx="650" cy="400" r="3" fill="white" />
    
    <!-- Field boundaries -->
    <line x1="55" y1="0" x2="1245" y2="0" stroke="white" stroke-width="2" />
    <line x1="55" y1="800" x2="1245" y2="800" stroke="white" stroke-width="2" />
    
    <!-- Left fence (excluding goal) -->
    <line x1="55" y1="0" x2="55" y2="335" stroke="white" stroke-width="2" />
    <line x1="55" y1="465" x2="55" y2="800" stroke="white" stroke-width="2" />
    
    <!-- Right fence (excluding goal) -->
    <line x1="1245" y1="0" x2="1245" y2="335" stroke="white" stroke-width="2" />
    <line x1="1245" y1="465" x2="1245" y2="800" stroke="white" stroke-width="2" />
    
    <!-- Left goal (red) -->
    <path d="M 55 335 A 65 65 0 0 0 55 465" stroke="red" stroke-width="3" fill="none" />
    <circle cx="55" cy="335" r="4" fill="red" />
    <circle cx="55" cy="465" r="4" fill="red" />
    
    <!-- Left goal area -->
    <rect x="0" y="335" width="55" height="130" fill="rgba(231, 76, 60, 0.2)" />
    
    <!-- Right goal (blue) -->
    <path d="M 1245 335 A 65 65 0 0 1 1245 465" stroke="blue" stroke-width="3" fill="none" />
    <circle cx="1245" cy="335" r="4" fill="blue" />
    <circle cx="1245" cy="465" r="4" fill="blue" />
    
    <!-- Right goal area -->
    <rect x="1245" y="335" width="55" height="130" fill="rgba(52, 152, 219, 0.2)" />
    
    <!-- Add stadium size indicator -->
    <text x="650" y="20" text-anchor="middle" fill="white" font-weight="bold" font-size="16">Large Stadium</text>
    <text x="650" y="48" text-anchor="middle" fill="white" font-size="14">1300×800</text>
    
    <!-- Add sample players for scale -->
    <!-- Red team players -->
    <circle cx="141.66666666666669" cy="300" r="17" fill="rgba(231, 76, 60, 0.8)" stroke="white" stroke-width="1" />
    <circle cx="163.33333333333331" cy="500" r="17" fill="rgba(231, 76, 60, 0.8)" stroke="white" stroke-width="1" />
    <circle cx="217.5" cy="400" r="17" fill="rgba(231, 76, 60, 0.8)" stroke="white" stroke-width="1" />
    
    <!-- Blue team players -->
    <circle cx="1158.3333333333333" cy="300" r="17" fill="rgba(52, 152, 219, 0.8)" stroke="white" stroke-width="1" />
    <circle cx="1136.6666666666667" cy="500" r="17" fill="rgba(52, 152, 219, 0.8)" stroke="white" stroke-width="1" />
    <circle cx="1082.5" cy="400" r="17" fill="rgba(52, 152, 219, 0.8)" stroke="white" stroke-width="1" />
    
    <!-- Ball -->
    <circle cx="650" cy="400" r="12" fill="white" stroke="#ddd" stroke-width="1" />
</svg>