<?xml version="1.0" encoding="UTF-8" standalone="no"?>
<svg width="700" height="450" viewBox="0 0 700 450" xmlns="http://www.w3.org/2000/svg">
    <!-- Field background -->
    <rect width="700" height="450" fill="#1a472a" />
    
    <!-- Field pattern - checkerboard -->
    <rect x="0" y="0" width="21" height="21" fill="#235c37" />
    <rect x="0" y="42" width="21" height="21" fill="#235c37" />
    <rect x="0" y="84" width="21" height="21" fill="#235c37" />
    <rect x="0" y="126" width="21" height="21" fill="#235c37" />
    <rect x="0" y="168" width="21" height="21" fill="#235c37" />
    <rect x="0" y="210" width="21" height="21" fill="#235c37" />
    <rect x="0" y="252" width="21" height="21" fill="#235c37" />
    <rect x="0" y="294" width="21" height="21" fill="#235c37" />
    <rect x="0" y="336" width="21" height="21" fill="#235c37" />
    <rect x="0" y="378" width="21" height="21" fill="#235c37" />
    <rect x="0" y="420" width="21" height="21" fill="#235c37" />
    <rect x="21" y="21" width="21" height="21" fill="#235c37" />
    <rect x="21" y="63" width="21" height="21" fill="#235c37" />
    <rect x="21" y="105" width="21" height="21" fill="#235c37" />
    <rect x="21" y="147" width="21" height="21" fill="#235c37" />
    <rect x="21" y="189" width="21" height="21" fill="#235c37" />
    <rect x="21" y="231" width="21" height="21" fill="#235c37" />
    <rect x="21" y="273" width="21" height="21" fill="#235c37" />
    <rect x="21" y="315" width="21" height="21" fill="#235c37" />
    <rect x="21" y="357" width="21" height="21" fill="#235c37" />
    <rect x="21" y="399" width="21" height="21" fill="#235c37" />
    <rect x="21" y="441" width="21" height="21" fill="#235c37" />
    <rect x="42" y="0" width="21" height="21" fill="#235c37" />
    <rect x="42" y="42" width="21" height="21" fill="#235c37" />
    <rect x="42" y="84" width="21" height="21" fill="#235c37" />
    <rect x="42" y="126" width="21" height="21" fill="#235c37" />
    <rect x="42" y="168" width="21" height="21" fill="#235c37" />
    <rect x="42" y="210" width="21" height="21" fill="#235c37" />
    <rect x="42" y="252" width="21" height="21" fill="#235c37" />
    <rect x="42" y="294" width="21" height="21" fill="#235c37" />
    <rect x="42" y="336" width="21" height="21" fill="#235c37" />
    <rect x="42" y="378" width="21" height="21" fill="#235c37" />
    <rect x="42" y="420" width="21" height="21" fill="#235c37" />
    <rect x="63" y="21" width="21" height="21" fill="#235c37" />
    <rect x="63" y="63" width="21" height="21" fill="#235c37" />
    <rect x="63" y="105" width="21" height="21" fill="#235c37" />
    <rect x="63" y="147" width="21" height="21" fill="#235c37" />
    <rect x="63" y="189" width="21" height="21" fill="#235c37" />
    <rect x="63" y="231" width="21" height="21" fill="#235c37" />
    <rect x="63" y="273" width="21" height="21" fill="#235c37" />
    <rect x="63" y="315" width="21" height="21" fill="#235c37" />
    <rect x="63" y="357" width="21" height="21" fill="#235c37" />
    <rect x="63" y="399" width="21" height="21" fill="#235c37" />
    <rect x="63" y="441" width="21" height="21" fill="#235c37" />
    <rect x="84" y="0" width="21" height="21" fill="#235c37" />
    <rect x="84" y="42" width="21" height="21" fill="#235c37" />
    <rect x="84" y="84" width="21" height="21" fill="#235c37" />
    <rect x="84" y="126" width="21" height="21" fill="#235c37" />
    <rect x="84" y="168" width="21" height="21" fill="#235c37" />
    <rect x="84" y="210" width="21" height="21" fill="#235c37" />
    <rect x="84" y="252" width="21" height="21" fill="#235c37" />
    <rect x="84" y="294" width="21" height="21" fill="#235c37" />
    <rect x="84" y="336" width="21" height="21" fill="#235c37" />
    <rect x="84" y="378" width="21" height="21" fill="#235c37" />
    <rect x="84" y="420" width="21" height="21" fill="#235c37" />
    <rect x="105" y="21" width="21" height="21" fill="#235c37" />
    <rect x="105" y="63" width="21" height="21" fill="#235c37" />
    <rect x="105" y="105" width="21" height="21" fill="#235c37" />
    <rect x="105" y="147" width="21" height="21" fill="#235c37" />
    <rect x="105" y="189" width="21" height="21" fill="#235c37" />
    <rect x="105" y="231" width="21" height="21" fill="#235c37" />
    <rect x="105" y="273" width="21" height="21" fill="#235c37" />
    <rect x="105" y="315" width="21" height="21" fill="#235c37" />
    <rect x="105" y="357" width="21" height="21" fill="#235c37" />
    <rect x="105" y="399" width="21" height="21" fill="#235c37" />
    <rect x="105" y="441" width="21" height="21" fill="#235c37" />
    <rect x="126" y="0" width="21" height="21" fill="#235c37" />
    <rect x="126" y="42" width="21" height="21" fill="#235c37" />
    <rect x="126" y="84" width="21" height="21" fill="#235c37" />
    <rect x="126" y="126" width="21" height="21" fill="#235c37" />
    <rect x="126" y="168" width="21" height="21" fill="#235c37" />
    <rect x="126" y="210" width="21" height="21" fill="#235c37" />
    <rect x="126" y="252" width="21" height="21" fill="#235c37" />
    <rect x="126" y="294" width="21" height="21" fill="#235c37" />
    <rect x="126" y="336" width="21" height="21" fill="#235c37" />
    <rect x="126" y="378" width="21" height="21" fill="#235c37" />
    <rect x="126" y="420" width="21" height="21" fill="#235c37" />
    <rect x="147" y="21" width="21" height="21" fill="#235c37" />
    <rect x="147" y="63" width="21" height="21" fill="#235c37" />
    <rect x="147" y="105" width="21" height="21" fill="#235c37" />
    <rect x="147" y="147" width="21" height="21" fill="#235c37" />
    <rect x="147" y="189" width="21" height="21" fill="#235c37" />
    <rect x="147" y="231" width="21" height="21" fill="#235c37" />
    <rect x="147" y="273" width="21" height="21" fill="#235c37" />
    <rect x="147" y="315" width="21" height="21" fill="#235c37" />
    <rect x="147" y="357" width="21" height="21" fill="#235c37" />
    <rect x="147" y="399" width="21" height="21" fill="#235c37" />
    <rect x="147" y="441" width="21" height="21" fill="#235c37" />
    <rect x="168" y="0" width="21" height="21" fill="#235c37" />
    <rect x="168" y="42" width="21" height="21" fill="#235c37" />
    <rect x="168" y="84" width="21" height="21" fill="#235c37" />
    <rect x="168" y="126" width="21" height="21" fill="#235c37" />
    <rect x="168" y="168" width="21" height="21" fill="#235c37" />
    <rect x="168" y="210" width="21" height="21" fill="#235c37" />
    <rect x="168" y="252" width="21" height="21" fill="#235c37" />
    <rect x="168" y="294" width="21" height="21" fill="#235c37" />
    <rect x="168" y="336" width="21" height="21" fill="#235c37" />
    <rect x="168" y="378" width="21" height="21" fill="#235c37" />
    <rect x="168" y="420" width="21" height="21" fill="#235c37" />
    <rect x="189" y="21" width="21" height="21" fill="#235c37" />
    <rect x="189" y="63" width="21" height="21" fill="#235c37" />
    <rect x="189" y="105" width="21" height="21" fill="#235c37" />
    <rect x="189" y="147" width="21" height="21" fill="#235c37" />
    <rect x="189" y="189" width="21" height="21" fill="#235c37" />
    <rect x="189" y="231" width="21" height="21" fill="#235c37" />
    <rect x="189" y="273" width="21" height="21" fill="#235c37" />
    <rect x="189" y="315" width="21" height="21" fill="#235c37" />
    <rect x="189" y="357" width="21" height="21" fill="#235c37" />
    <rect x="189" y="399" width="21" height="21" fill="#235c37" />
    <rect x="189" y="441" width="21" height="21" fill="#235c37" />
    <rect x="210" y="0" width="21" height="21" fill="#235c37" />
    <rect x="210" y="42" width="21" height="21" fill="#235c37" />
    <rect x="210" y="84" width="21" height="21" fill="#235c37" />
    <rect x="210" y="126" width="21" height="21" fill="#235c37" />
    <rect x="210" y="168" width="21" height="21" fill="#235c37" />
    <rect x="210" y="210" width="21" height="21" fill="#235c37" />
    <rect x="210" y="252" width="21" height="21" fill="#235c37" />
    <rect x="210" y="294" width="21" height="21" fill="#235c37" />
    <rect x="210" y="336" width="21" height="21" fill="#235c37" />
    <rect x="210" y="378" width="21" height="21" fill="#235c37" />
    <rect x="210" y="420" width="21" height="21" fill="#235c37" />
    <rect x="231" y="21" width="21" height="21" fill="#235c37" />
    <rect x="231" y="63" width="21" height="21" fill="#235c37" />
    <rect x="231" y="105" width="21" height="21" fill="#235c37" />
    <rect x="231" y="147" width="21" height="21" fill="#235c37" />
    <rect x="231" y="189" width="21" height="21" fill="#235c37" />
    <rect x="231" y="231" width="21" height="21" fill="#235c37" />
    <rect x="231" y="273" width="21" height="21" fill="#235c37" />
    <rect x="231" y="315" width="21" height="21" fill="#235c37" />
    <rect x="231" y="357" width="21" height="21" fill="#235c37" />
    <rect x="231" y="399" width="21" height="21" fill="#235c37" />
    <rect x="231" y="441" width="21" height="21" fill="#235c37" />
    <rect x="252" y="0" width="21" height="21" fill="#235c37" />
    <rect x="252" y="42" width="21" height="21" fill="#235c37" />
    <rect x="252" y="84" width="21" height="21" fill="#235c37" />
    <rect x="252" y="126" width="21" height="21" fill="#235c37" />
    <rect x="252" y="168" width="21" height="21" fill="#235c37" />
    <rect x="252" y="210" width="21" height="21" fill="#235c37" />
    <rect x="252" y="252" width="21" height="21" fill="#235c37" />
    <rect x="252" y="294" width="21" height="21" fill="#235c37" />
    <rect x="252" y="336" width="21" height="21" fill="#235c37" />
    <rect x="252" y="378" width="21" height="21" fill="#235c37" />
    <rect x="252" y="420" width="21" height="21" fill="#235c37" />
    <rect x="273" y="21" width="21" height="21" fill="#235c37" />
    <rect x="273" y="63" width="21" height="21" fill="#235c37" />
    <rect x="273" y="105" width="21" height="21" fill="#235c37" />
    <rect x="273" y="147" width="21" height="21" fill="#235c37" />
    <rect x="273" y="189" width="21" height="21" fill="#235c37" />
    <rect x="273" y="231" width="21" height="21" fill="#235c37" />
    <rect x="273" y="273" width="21" height="21" fill="#235c37" />
    <rect x="273" y="315" width="21" height="21" fill="#235c37" />
    <rect x="273" y="357" width="21" height="21" fill="#235c37" />
    <rect x="273" y="399" width="21" height="21" fill="#235c37" />
    <rect x="273" y="441" width="21" height="21" fill="#235c37" />
    <rect x="294" y="0" width="21" height="21" fill="#235c37" />
    <rect x="294" y="42" width="21" height="21" fill="#235c37" />
    <rect x="294" y="84" width="21" height="21" fill="#235c37" />
    <rect x="294" y="126" width="21" height="21" fill="#235c37" />
    <rect x="294" y="168" width="21" height="21" fill="#235c37" />
    <rect x="294" y="210" width="21" height="21" fill="#235c37" />
    <rect x="294" y="252" width="21" height="21" fill="#235c37" />
    <rect x="294" y="294" width="21" height="21" fill="#235c37" />
    <rect x="294" y="336" width="21" height="21" fill="#235c37" />
    <rect x="294" y="378" width="21" height="21" fill="#235c37" />
    <rect x="294" y="420" width="21" height="21" fill="#235c37" />
    <rect x="315" y="21" width="21" height="21" fill="#235c37" />
    <rect x="315" y="63" width="21" height="21" fill="#235c37" />
    <rect x="315" y="105" width="21" height="21" fill="#235c37" />
    <rect x="315" y="147" width="21" height="21" fill="#235c37" />
    <rect x="315" y="189" width="21" height="21" fill="#235c37" />
    <rect x="315" y="231" width="21" height="21" fill="#235c37" />
    <rect x="315" y="273" width="21" height="21" fill="#235c37" />
    <rect x="315" y="315" width="21" height="21" fill="#235c37" />
    <rect x="315" y="357" width="21" height="21" fill="#235c37" />
    <rect x="315" y="399" width="21" height="21" fill="#235c37" />
    <rect x="315" y="441" width="21" height="21" fill="#235c37" />
    <rect x="336" y="0" width="21" height="21" fill="#235c37" />
    <rect x="336" y="42" width="21" height="21" fill="#235c37" />
    <rect x="336" y="84" width="21" height="21" fill="#235c37" />
    <rect x="336" y="126" width="21" height="21" fill="#235c37" />
    <rect x="336" y="168" width="21" height="21" fill="#235c37" />
    <rect x="336" y="210" width="21" height="21" fill="#235c37" />
    <rect x="336" y="252" width="21" height="21" fill="#235c37" />
    <rect x="336" y="294" width="21" height="21" fill="#235c37" />
    <rect x="336" y="336" width="21" height="21" fill="#235c37" />
    <rect x="336" y="378" width="21" height="21" fill="#235c37" />
    <rect x="336" y="420" width="21" height="21" fill="#235c37" />
    <rect x="357" y="21" width="21" height="21" fill="#235c37" />
    <rect x="357" y="63" width="21" height="21" fill="#235c37" />
    <rect x="357" y="105" width="21" height="21" fill="#235c37" />
    <rect x="357" y="147" width="21" height="21" fill="#235c37" />
    <rect x="357" y="189" width="21" height="21" fill="#235c37" />
    <rect x="357" y="231" width="21" height="21" fill="#235c37" />
    <rect x="357" y="273" width="21" height="21" fill="#235c37" />
    <rect x="357" y="315" width="21" height="21" fill="#235c37" />
    <rect x="357" y="357" width="21" height="21" fill="#235c37" />
    <rect x="357" y="399" width="21" height="21" fill="#235c37" />
    <rect x="357" y="441" width="21" height="21" fill="#235c37" />
    <rect x="378" y="0" width="21" height="21" fill="#235c37" />
    <rect x="378" y="42" width="21" height="21" fill="#235c37" />
    <rect x="378" y="84" width="21" height="21" fill="#235c37" />
    <rect x="378" y="126" width="21" height="21" fill="#235c37" />
    <rect x="378" y="168" width="21" height="21" fill="#235c37" />
    <rect x="378" y="210" width="21" height="21" fill="#235c37" />
    <rect x="378" y="252" width="21" height="21" fill="#235c37" />
    <rect x="378" y="294" width="21" height="21" fill="#235c37" />
    <rect x="378" y="336" width="21" height="21" fill="#235c37" />
    <rect x="378" y="378" width="21" height="21" fill="#235c37" />
    <rect x="378" y="420" width="21" height="21" fill="#235c37" />
    <rect x="399" y="21" width="21" height="21" fill="#235c37" />
    <rect x="399" y="63" width="21" height="21" fill="#235c37" />
    <rect x="399" y="105" width="21" height="21" fill="#235c37" />
    <rect x="399" y="147" width="21" height="21" fill="#235c37" />
    <rect x="399" y="189" width="21" height="21" fill="#235c37" />
    <rect x="399" y="231" width="21" height="21" fill="#235c37" />
    <rect x="399" y="273" width="21" height="21" fill="#235c37" />
    <rect x="399" y="315" width="21" height="21" fill="#235c37" />
    <rect x="399" y="357" width="21" height="21" fill="#235c37" />
    <rect x="399" y="399" width="21" height="21" fill="#235c37" />
    <rect x="399" y="441" width="21" height="21" fill="#235c37" />
    <rect x="420" y="0" width="21" height="21" fill="#235c37" />
    <rect x="420" y="42" width="21" height="21" fill="#235c37" />
    <rect x="420" y="84" width="21" height="21" fill="#235c37" />
    <rect x="420" y="126" width="21" height="21" fill="#235c37" />
    <rect x="420" y="168" width="21" height="21" fill="#235c37" />
    <rect x="420" y="210" width="21" height="21" fill="#235c37" />
    <rect x="420" y="252" width="21" height="21" fill="#235c37" />
    <rect x="420" y="294" width="21" height="21" fill="#235c37" />
    <rect x="420" y="336" width="21" height="21" fill="#235c37" />
    <rect x="420" y="378" width="21" height="21" fill="#235c37" />
    <rect x="420" y="420" width="21" height="21" fill="#235c37" />
    <rect x="441" y="21" width="21" height="21" fill="#235c37" />
    <rect x="441" y="63" width="21" height="21" fill="#235c37" />
    <rect x="441" y="105" width="21" height="21" fill="#235c37" />
    <rect x="441" y="147" width="21" height="21" fill="#235c37" />
    <rect x="441" y="189" width="21" height="21" fill="#235c37" />
    <rect x="441" y="231" width="21" height="21" fill="#235c37" />
    <rect x="441" y="273" width="21" height="21" fill="#235c37" />
    <rect x="441" y="315" width="21" height="21" fill="#235c37" />
    <rect x="441" y="357" width="21" height="21" fill="#235c37" />
    <rect x="441" y="399" width="21" height="21" fill="#235c37" />
    <rect x="441" y="441" width="21" height="21" fill="#235c37" />
    <rect x="462" y="0" width="21" height="21" fill="#235c37" />
    <rect x="462" y="42" width="21" height="21" fill="#235c37" />
    <rect x="462" y="84" width="21" height="21" fill="#235c37" />
    <rect x="462" y="126" width="21" height="21" fill="#235c37" />
    <rect x="462" y="168" width="21" height="21" fill="#235c37" />
    <rect x="462" y="210" width="21" height="21" fill="#235c37" />
    <rect x="462" y="252" width="21" height="21" fill="#235c37" />
    <rect x="462" y="294" width="21" height="21" fill="#235c37" />
    <rect x="462" y="336" width="21" height="21" fill="#235c37" />
    <rect x="462" y="378" width="21" height="21" fill="#235c37" />
    <rect x="462" y="420" width="21" height="21" fill="#235c37" />
    <rect x="483" y="21" width="21" height="21" fill="#235c37" />
    <rect x="483" y="63" width="21" height="21" fill="#235c37" />
    <rect x="483" y="105" width="21" height="21" fill="#235c37" />
    <rect x="483" y="147" width="21" height="21" fill="#235c37" />
    <rect x="483" y="189" width="21" height="21" fill="#235c37" />
    <rect x="483" y="231" width="21" height="21" fill="#235c37" />
    <rect x="483" y="273" width="21" height="21" fill="#235c37" />
    <rect x="483" y="315" width="21" height="21" fill="#235c37" />
    <rect x="483" y="357" width="21" height="21" fill="#235c37" />
    <rect x="483" y="399" width="21" height="21" fill="#235c37" />
    <rect x="483" y="441" width="21" height="21" fill="#235c37" />
    <rect x="504" y="0" width="21" height="21" fill="#235c37" />
    <rect x="504" y="42" width="21" height="21" fill="#235c37" />
    <rect x="504" y="84" width="21" height="21" fill="#235c37" />
    <rect x="504" y="126" width="21" height="21" fill="#235c37" />
    <rect x="504" y="168" width="21" height="21" fill="#235c37" />
    <rect x="504" y="210" width="21" height="21" fill="#235c37" />
    <rect x="504" y="252" width="21" height="21" fill="#235c37" />
    <rect x="504" y="294" width="21" height="21" fill="#235c37" />
    <rect x="504" y="336" width="21" height="21" fill="#235c37" />
    <rect x="504" y="378" width="21" height="21" fill="#235c37" />
    <rect x="504" y="420" width="21" height="21" fill="#235c37" />
    <rect x="525" y="21" width="21" height="21" fill="#235c37" />
    <rect x="525" y="63" width="21" height="21" fill="#235c37" />
    <rect x="525" y="105" width="21" height="21" fill="#235c37" />
    <rect x="525" y="147" width="21" height="21" fill="#235c37" />
    <rect x="525" y="189" width="21" height="21" fill="#235c37" />
    <rect x="525" y="231" width="21" height="21" fill="#235c37" />
    <rect x="525" y="273" width="21" height="21" fill="#235c37" />
    <rect x="525" y="315" width="21" height="21" fill="#235c37" />
    <rect x="525" y="357" width="21" height="21" fill="#235c37" />
    <rect x="525" y="399" width="21" height="21" fill="#235c37" />
    <rect x="525" y="441" width="21" height="21" fill="#235c37" />
    <rect x="546" y="0" width="21" height="21" fill="#235c37" />
    <rect x="546" y="42" width="21" height="21" fill="#235c37" />
    <rect x="546" y="84" width="21" height="21" fill="#235c37" />
    <rect x="546" y="126" width="21" height="21" fill="#235c37" />
    <rect x="546" y="168" width="21" height="21" fill="#235c37" />
    <rect x="546" y="210" width="21" height="21" fill="#235c37" />
    <rect x="546" y="252" width="21" height="21" fill="#235c37" />
    <rect x="546" y="294" width="21" height="21" fill="#235c37" />
    <rect x="546" y="336" width="21" height="21" fill="#235c37" />
    <rect x="546" y="378" width="21" height="21" fill="#235c37" />
    <rect x="546" y="420" width="21" height="21" fill="#235c37" />
    <rect x="567" y="21" width="21" height="21" fill="#235c37" />
    <rect x="567" y="63" width="21" height="21" fill="#235c37" />
    <rect x="567" y="105" width="21" height="21" fill="#235c37" />
    <rect x="567" y="147" width="21" height="21" fill="#235c37" />
    <rect x="567" y="189" width="21" height="21" fill="#235c37" />
    <rect x="567" y="231" width="21" height="21" fill="#235c37" />
    <rect x="567" y="273" width="21" height="21" fill="#235c37" />
    <rect x="567" y="315" width="21" height="21" fill="#235c37" />
    <rect x="567" y="357" width="21" height="21" fill="#235c37" />
    <rect x="567" y="399" width="21" height="21" fill="#235c37" />
    <rect x="567" y="441" width="21" height="21" fill="#235c37" />
    <rect x="588" y="0" width="21" height="21" fill="#235c37" />
    <rect x="588" y="42" width="21" height="21" fill="#235c37" />
    <rect x="588" y="84" width="21" height="21" fill="#235c37" />
    <rect x="588" y="126" width="21" height="21" fill="#235c37" />
    <rect x="588" y="168" width="21" height="21" fill="#235c37" />
    <rect x="588" y="210" width="21" height="21" fill="#235c37" />
    <rect x="588" y="252" width="21" height="21" fill="#235c37" />
    <rect x="588" y="294" width="21" height="21" fill="#235c37" />
    <rect x="588" y="336" width="21" height="21" fill="#235c37" />
    <rect x="588" y="378" width="21" height="21" fill="#235c37" />
    <rect x="588" y="420" width="21" height="21" fill="#235c37" />
    <rect x="609" y="21" width="21" height="21" fill="#235c37" />
    <rect x="609" y="63" width="21" height="21" fill="#235c37" />
    <rect x="609" y="105" width="21" height="21" fill="#235c37" />
    <rect x="609" y="147" width="21" height="21" fill="#235c37" />
    <rect x="609" y="189" width="21" height="21" fill="#235c37" />
    <rect x="609" y="231" width="21" height="21" fill="#235c37" />
    <rect x="609" y="273" width="21" height="21" fill="#235c37" />
    <rect x="609" y="315" width="21" height="21" fill="#235c37" />
    <rect x="609" y="357" width="21" height="21" fill="#235c37" />
    <rect x="609" y="399" width="21" height="21" fill="#235c37" />
    <rect x="609" y="441" width="21" height="21" fill="#235c37" />
    <rect x="630" y="0" width="21" height="21" fill="#235c37" />
    <rect x="630" y="42" width="21" height="21" fill="#235c37" />
    <rect x="630" y="84" width="21" height="21" fill="#235c37" />
    <rect x="630" y="126" width="21" height="21" fill="#235c37" />
    <rect x="630" y="168" width="21" height="21" fill="#235c37" />
    <rect x="630" y="210" width="21" height="21" fill="#235c37" />
    <rect x="630" y="252" width="21" height="21" fill="#235c37" />
    <rect x="630" y="294" width="21" height="21" fill="#235c37" />
    <rect x="630" y="336" width="21" height="21" fill="#235c37" />
    <rect x="630" y="378" width="21" height="21" fill="#235c37" />
    <rect x="630" y="420" width="21" height="21" fill="#235c37" />
    <rect x="651" y="21" width="21" height="21" fill="#235c37" />
    <rect x="651" y="63" width="21" height="21" fill="#235c37" />
    <rect x="651" y="105" width="21" height="21" fill="#235c37" />
    <rect x="651" y="147" width="21" height="21" fill="#235c37" />
    <rect x="651" y="189" width="21" height="21" fill="#235c37" />
    <rect x="651" y="231" width="21" height="21" fill="#235c37" />
    <rect x="651" y="273" width="21" height="21" fill="#235c37" />
    <rect x="651" y="315" width="21" height="21" fill="#235c37" />
    <rect x="651" y="357" width="21" height="21" fill="#235c37" />
    <rect x="651" y="399" width="21" height="21" fill="#235c37" />
    <rect x="651" y="441" width="21" height="21" fill="#235c37" />
    <rect x="672" y="0" width="21" height="21" fill="#235c37" />
    <rect x="672" y="42" width="21" height="21" fill="#235c37" />
    <rect x="672" y="84" width="21" height="21" fill="#235c37" />
    <rect x="672" y="126" width="21" height="21" fill="#235c37" />
    <rect x="672" y="168" width="21" height="21" fill="#235c37" />
    <rect x="672" y="210" width="21" height="21" fill="#235c37" />
    <rect x="672" y="252" width="21" height="21" fill="#235c37" />
    <rect x="672" y="294" width="21" height="21" fill="#235c37" />
    <rect x="672" y="336" width="21" height="21" fill="#235c37" />
    <rect x="672" y="378" width="21" height="21" fill="#235c37" />
    <rect x="672" y="420" width="21" height="21" fill="#235c37" />
    <rect x="693" y="21" width="21" height="21" fill="#235c37" />
    <rect x="693" y="63" width="21" height="21" fill="#235c37" />
    <rect x="693" y="105" width="21" height="21" fill="#235c37" />
    <rect x="693" y="147" width="21" height="21" fill="#235c37" />
    <rect x="693" y="189" width="21" height="21" fill="#235c37" />
    <rect x="693" y="231" width="21" height="21" fill="#235c37" />
    <rect x="693" y="273" width="21" height="21" fill="#235c37" />
    <rect x="693" y="315" width="21" height="21" fill="#235c37" />
    <rect x="693" y="357" width="21" height="21" fill="#235c37" />
    <rect x="693" y="399" width="21" height="21" fill="#235c37" />
    <rect x="693" y="441" width="21" height="21" fill="#235c37" />

    <!-- Center line -->
    <line x1="350" y1="0" x2="350" y2="450" stroke="white" stroke-width="2" />
    
    <!-- Center circle -->
    <circle cx="350" cy="225" r="42" stroke="white" stroke-width="2" fill="none" />
    
    <!-- Center spot -->
    <circle cx="350" cy="225" r="3" fill="white" />
    
    <!-- Field boundaries -->
    <line x1="35" y1="0" x2="665" y2="0" stroke="white" stroke-width="2" />
    <line x1="35" y1="450" x2="665" y2="450" stroke="white" stroke-width="2" />
    
    <!-- Left fence (excluding goal) -->
    <line x1="35" y1="0" x2="35" y2="190" stroke="white" stroke-width="2" />
    <line x1="35" y1="260" x2="35" y2="450" stroke="white" stroke-width="2" />
    
    <!-- Right fence (excluding goal) -->
    <line x1="665" y1="0" x2="665" y2="190" stroke="white" stroke-width="2" />
    <line x1="665" y1="260" x2="665" y2="450" stroke="white" stroke-width="2" />
    
    <!-- Left goal (red) -->
    <path d="M 35 190 A 35 35 0 0 0 35 260" stroke="red" stroke-width="3" fill="none" />
    <circle cx="35" cy="190" r="4" fill="red" />
    <circle cx="35" cy="260" r="4" fill="red" />
    
    <!-- Left goal area -->
    <rect x="0" y="190" width="35" height="70" fill="rgba(231, 76, 60, 0.2)" />
    
    <!-- Right goal (blue) -->
    <path d="M 665 190 A 35 35 0 0 1 665 260" stroke="blue" stroke-width="3" fill="none" />
    <circle cx="665" cy="190" r="4" fill="blue" />
    <circle cx="665" cy="260" r="4" fill="blue" />
    
    <!-- Right goal area -->
    <rect x="665" y="190" width="35" height="70" fill="rgba(52, 152, 219, 0.2)" />
    
    <!-- Add stadium size indicator -->
    <text x="350" y="20" text-anchor="middle" fill="white" font-weight="bold" font-size="16">Small Stadium</text>
    <text x="350" y="48" text-anchor="middle" fill="white" font-size="14">700×450</text>
    
    <!-- Add sample players for scale -->
    <!-- Red team players -->
    <circle cx="81.66666666666666" cy="168.75" r="13" fill="rgba(231, 76, 60, 0.8)" stroke="white" stroke-width="1" />
    <circle cx="93.33333333333334" cy="281.25" r="13" fill="rgba(231, 76, 60, 0.8)" stroke="white" stroke-width="1" />
    <circle cx="122.5" cy="225" r="13" fill="rgba(231, 76, 60, 0.8)" stroke="white" stroke-width="1" />
    
    <!-- Blue team players -->
    <circle cx="618.3333333333334" cy="168.75" r="13" fill="rgba(52, 152, 219, 0.8)" stroke="white" stroke-width="1" />
    <circle cx="606.6666666666666" cy="281.25" r="13" fill="rgba(52, 152, 219, 0.8)" stroke="white" stroke-width="1" />
    <circle cx="577.5" cy="225" r="13" fill="rgba(52, 152, 219, 0.8)" stroke="white" stroke-width="1" />
    
    <!-- Ball -->
    <circle cx="350" cy="225" r="8" fill="white" stroke="#ddd" stroke-width="1" />
</svg>